<svg id="Layer_1" data-name="Layer 1" xmlns="http://www.w3.org/2000/svg" viewBox="0 0 762 754.71"><defs><style>.cls-1{fill:#b1b0b0;fill-rule:evenodd;}</style></defs><title>podcats</title><path class="cls-1" d="M1074.15,528.37A34.26,34.26,0,0,0,1084,504V238.83a34.3,34.3,0,0,0-46.12-32.39L842,278.29a34.07,34.07,0,0,1-22,.55,386.59,386.59,0,0,0-233,0,34.22,34.22,0,0,1-22.09-.55C531,265.9,429,228.57,368.6,206.44c-22.51-8.25-46.6,8.41-46.6,32.39V504a34.73,34.73,0,0,0,10.35,24.39L354.09,550a34.49,34.49,0,0,1,.06,48.78L335,617.91A34.62,34.62,0,0,0,325.6,649C359,821.38,507.56,951.88,688,959V906.62C600,899,530.74,824.84,530.74,734.77a15.21,15.21,0,0,1,15.24-15,15,15,0,0,1,15,15c0,78.58,63.91,142.5,142.49,142.5s142.47-63.93,142.47-142.5a14.91,14.91,0,1,1,29.81,0A172.27,172.27,0,0,1,718,906.62V959c180.88-6.66,329.88-137.32,363.37-310a34.63,34.63,0,0,0-9.45-31.11l-19.14-19.14a34.49,34.49,0,0,1-.12-48.78ZM805,733.5A101.5,101.5,0,0,1,703.5,835h0A101.5,101.5,0,0,1,602,733.5v-153A101.5,101.5,0,0,1,703.5,479h0A101.5,101.5,0,0,1,805,580.5Z" transform="translate(-322 -204.3)"/></svg>